<?xml version="1.0" standalone="no"?>
<!DOCTYPE svg PUBLIC "-//W3C//DTD SVG 20010904//EN"
 "http://www.w3.org/TR/2001/REC-SVG-20010904/DTD/svg10.dtd">
<svg version="1.0" xmlns="http://www.w3.org/2000/svg"
 width="500.000000pt" height="500.000000pt" viewBox="0 0 500.000000 500.000000"
 preserveAspectRatio="xMidYMid meet">

<g transform="translate(0.000000,500.000000) scale(0.100000,-0.100000)"
fill="#000000" stroke="none">
<path d="M2408 3238 l-3 -132 -76 -12 c-173 -27 -299 -84 -395 -179 -78 -77
-104 -141 -104 -254 0 -131 43 -234 125 -303 67 -56 200 -109 368 -148 l97
-22 0 -153 c0 -85 -3 -156 -7 -158 -14 -8 -166 14 -260 38 -51 13 -131 40
-176 59 -135 58 -128 66 -125 -130 l3 -166 50 -20 c77 -31 268 -67 393 -74
l112 -7 0 -204 0 -203 95 0 95 0 0 205 0 204 38 6 c196 29 312 78 415 175 46
43 77 82 99 128 31 64 33 72 33 182 0 106 -2 120 -28 172 -60 123 -220 212
-462 258 -105 20 -95 3 -95 167 l0 146 71 -7 c92 -9 205 -40 287 -76 35 -17
75 -30 88 -30 l24 0 0 160 0 160 -27 11 c-59 22 -193 50 -313 64 -69 8 -126
15 -127 15 -2 0 -3 59 -3 130 l0 130 -95 0 -94 0 -3 -132z m22 -558 l0 -130
-25 0 c-41 0 -133 40 -155 67 -24 31 -26 89 -4 121 24 35 100 69 157 71 l27 1
0 -130z m276 -551 c70 -34 97 -103 64 -164 -17 -32 -81 -71 -132 -80 l-38 -7
0 142 0 143 32 -7 c18 -4 51 -16 74 -27z"/>
</g>
</svg>
