<svg xmlns="http://www.w3.org/2000/svg" xmlns:xlink="http://www.w3.org/1999/xlink" width="500" zoomAndPan="magnify" viewBox="0 0 375 374.999991" height="500" preserveAspectRatio="xMidYMid meet" version="1.2"><defs><clipPath id="bdc310ec3d"><path d="M 69.65625 12.214844 L 305.34375 12.214844 L 305.34375 247.898438 L 69.65625 247.898438 Z M 69.65625 12.214844 "/></clipPath><clipPath id="21ec15c822"><path d="M 187.5 12.214844 C 122.417969 12.214844 69.65625 64.972656 69.65625 130.054688 C 69.65625 195.136719 122.417969 247.898438 187.5 247.898438 C 252.582031 247.898438 305.34375 195.136719 305.34375 130.054688 C 305.34375 64.972656 252.582031 12.214844 187.5 12.214844 Z M 187.5 12.214844 "/></clipPath><clipPath id="bd177e91a6"><path d="M 81.890625 182.480469 L 294.449219 182.480469 L 294.449219 368.195312 L 81.890625 368.195312 Z M 81.890625 182.480469 "/></clipPath><clipPath id="c17d81d321"><path d="M 188.015625 368.195312 L 294.140625 182.480469 L 81.890625 182.480469 Z M 188.015625 368.195312 "/></clipPath></defs><g id="3b3dd4ba2c"><g clip-rule="nonzero" clip-path="url(#bdc310ec3d)"><g clip-rule="nonzero" clip-path="url(#21ec15c822)"><path style=" stroke:none;fill-rule:nonzero;fill:#6bbf59;fill-opacity:1;" d="M 69.65625 12.214844 L 305.34375 12.214844 L 305.34375 247.898438 L 69.65625 247.898438 Z M 69.65625 12.214844 "/></g></g><g clip-rule="nonzero" clip-path="url(#bd177e91a6)"><g clip-rule="nonzero" clip-path="url(#c17d81d321)"><path style=" stroke:none;fill-rule:nonzero;fill:#6bbf59;fill-opacity:1;" d="M 81.890625 182.480469 L 294.449219 182.480469 L 294.449219 368.195312 L 81.890625 368.195312 Z M 81.890625 182.480469 "/></g></g><g style="fill:#0b6e4f;fill-opacity:1;"><g transform="translate(104.335303, 224.444372)"><path style="stroke:none" d="M 94.359375 -0.234375 L 94.359375 41.484375 L 74.359375 41.484375 L 74.359375 0.453125 C 50.910156 -0.234375 32.175781 -3.753906 18.15625 -10.109375 L 18.15625 -43.671875 L 23.328125 -43.671875 C 36.960938 -36.316406 54.164062 -31.757812 74.9375 -30 L 74.9375 -61.484375 L 63.78125 -64.015625 C 45.007812 -68.304688 32.253906 -74.03125 25.515625 -81.1875 C 18.773438 -88.351562 15.40625 -98.066406 15.40625 -110.328125 C 15.40625 -121.671875 20.578125 -131.398438 30.921875 -139.515625 C 41.265625 -147.640625 55.742188 -152.582031 74.359375 -154.34375 L 74.359375 -181.125 L 94.359375 -181.125 L 94.359375 -154.578125 C 113.128906 -153.429688 128.835938 -150.484375 141.484375 -145.734375 L 141.484375 -112.625 L 136.421875 -112.625 C 124.703125 -119.375 110.679688 -123.285156 94.359375 -124.359375 L 94.359375 -95.15625 L 103.546875 -93.328125 C 121.398438 -89.722656 134.269531 -84.472656 142.15625 -77.578125 C 150.050781 -70.679688 154 -61.253906 154 -49.296875 C 154 -36.429688 148.597656 -25.363281 137.796875 -16.09375 C 126.992188 -6.820312 112.515625 -1.535156 94.359375 -0.234375 Z M 76.203125 -97.6875 L 76.203125 -124.359375 C 63.097656 -122.972656 56.546875 -118.601562 56.546875 -111.25 C 56.546875 -107.5 57.921875 -104.644531 60.671875 -102.6875 C 63.429688 -100.738281 68.609375 -99.070312 76.203125 -97.6875 Z M 93.890625 -58.953125 L 93.890625 -30.453125 C 106.148438 -32.367188 112.28125 -37.160156 112.28125 -44.828125 C 112.28125 -51.796875 106.148438 -56.503906 93.890625 -58.953125 Z M 93.890625 -58.953125 "/></g></g></g></svg>