<svg xmlns="http://www.w3.org/2000/svg" xmlns:xlink="http://www.w3.org/1999/xlink" width="1366" zoomAndPan="magnify" viewBox="0 0 1024.5 576" height="768" preserveAspectRatio="xMidYMid meet" version="1.2"><defs><clipPath id="9ed27358d6"><path d="M 0 0.140625 L 1024 0.140625 L 1024 575.859375 L 0 575.859375 Z M 0 0.140625 "/></clipPath><clipPath id="84e5521bf4"><path d="M 661.632812 336 L 974 336 L 974 471 L 661.632812 471 Z M 661.632812 336 "/></clipPath><clipPath id="d9911fc516"><path d="M 934 320.144531 L 989.972656 320.144531 L 989.972656 376 L 934 376 Z M 934 320.144531 "/></clipPath><clipPath id="19d8738855"><path d="M 696 456 L 720 456 L 720 575.769531 L 696 575.769531 Z M 696 456 "/></clipPath><clipPath id="fcbedf0441"><path d="M 763 519 L 787 519 L 787 575.769531 L 763 575.769531 Z M 763 519 "/></clipPath><clipPath id="b6d509f2ed"><path d="M 831 485 L 854 485 L 854 575.769531 L 831 575.769531 Z M 831 485 "/></clipPath><clipPath id="1da9221d1d"><path d="M 898 441 L 921 441 L 921 575.769531 L 898 575.769531 Z M 898 441 "/></clipPath><clipPath id="179f6c870f"><path d="M 950 395 L 974 395 L 974 575.769531 L 950 575.769531 Z M 950 395 "/></clipPath><clipPath id="76b860d41b"><path d="M 696 456 L 720 456 L 720 575.769531 L 696 575.769531 Z M 696 456 "/></clipPath><clipPath id="ece6ff20d2"><path d="M 763 519 L 787 519 L 787 575.769531 L 763 575.769531 Z M 763 519 "/></clipPath><clipPath id="10ee458920"><path d="M 831 485 L 854 485 L 854 575.769531 L 831 575.769531 Z M 831 485 "/></clipPath><clipPath id="01fd397d61"><path d="M 898 441 L 921 441 L 921 575.769531 L 898 575.769531 Z M 898 441 "/></clipPath><clipPath id="5579b5764c"><path d="M 950 395 L 974 395 L 974 575.769531 L 950 575.769531 Z M 950 395 "/></clipPath><clipPath id="cad675c1bf"><path d="M 696 456 L 720 456 L 720 575.769531 L 696 575.769531 Z M 696 456 "/></clipPath><clipPath id="1a70e5e711"><path d="M 763 519 L 787 519 L 787 575.769531 L 763 575.769531 Z M 763 519 "/></clipPath><clipPath id="5511c4b383"><path d="M 831 485 L 854 485 L 854 575.769531 L 831 575.769531 Z M 831 485 "/></clipPath><clipPath id="e938066bf1"><path d="M 898 441 L 921 441 L 921 575.769531 L 898 575.769531 Z M 898 441 "/></clipPath><clipPath id="d61ff7bbca"><path d="M 950 395 L 974 395 L 974 575.769531 L 950 575.769531 Z M 950 395 "/></clipPath><clipPath id="5b5961bdbe"><path d="M 47.738281 72.335938 L 112.203125 72.335938 L 112.203125 171.285156 L 47.738281 171.285156 Z M 47.738281 72.335938 "/></clipPath></defs><g id="54a903ce72"><g clip-rule="nonzero" clip-path="url(#9ed27358d6)"><path style=" stroke:none;fill-rule:nonzero;fill:#ffffff;fill-opacity:1;" d="M 0 0.140625 L 1024 0.140625 L 1024 575.859375 L 0 575.859375 Z M 0 0.140625 "/><path style=" stroke:none;fill-rule:nonzero;fill:#073b3a;fill-opacity:1;" d="M 0 0.140625 L 1024 0.140625 L 1024 575.859375 L 0 575.859375 Z M 0 0.140625 "/></g><g clip-rule="nonzero" clip-path="url(#84e5521bf4)"><path style=" stroke:none;fill-rule:nonzero;fill:#0b5554;fill-opacity:1;" d="M 786.691406 470.28125 L 718.875 402.464844 L 674.722656 446.617188 L 661.636719 433.527344 L 718.875 376.289062 L 786.691406 444.109375 L 831.863281 398.9375 L 864.871094 431.945312 L 960.359375 336.457031 L 973.445312 349.542969 L 864.871094 458.117188 L 831.863281 425.113281 Z M 786.691406 470.28125 "/></g><g clip-rule="nonzero" clip-path="url(#d9911fc516)"><path style=" stroke:none;fill-rule:nonzero;fill:#0b5554;fill-opacity:1;" d="M 989.757812 320.144531 L 979.359375 375.636719 L 934.261719 330.539062 Z M 989.757812 320.144531 "/></g><g clip-rule="nonzero" clip-path="url(#19d8738855)"><path style=" stroke:none;fill-rule:nonzero;fill:#0b5554;fill-opacity:1;" d="M 696.605469 456.449219 L 719.136719 456.449219 L 719.136719 575.773438 L 696.605469 575.773438 Z M 696.605469 456.449219 "/></g><g clip-rule="nonzero" clip-path="url(#fcbedf0441)"><path style=" stroke:none;fill-rule:nonzero;fill:#0b5554;fill-opacity:1;" d="M 763.871094 519.222656 L 786.40625 519.222656 L 786.40625 575.773438 L 763.871094 575.773438 Z M 763.871094 519.222656 "/></g><g clip-rule="nonzero" clip-path="url(#b6d509f2ed)"><path style=" stroke:none;fill-rule:nonzero;fill:#0b5554;fill-opacity:1;" d="M 831.140625 485.972656 L 853.671875 485.972656 L 853.671875 575.773438 L 831.140625 575.773438 Z M 831.140625 485.972656 "/></g><g clip-rule="nonzero" clip-path="url(#1da9221d1d)"><path style=" stroke:none;fill-rule:nonzero;fill:#0b5554;fill-opacity:1;" d="M 898.40625 441.1875 L 920.9375 441.1875 L 920.9375 575.773438 L 898.40625 575.773438 Z M 898.40625 441.1875 "/></g><g clip-rule="nonzero" clip-path="url(#179f6c870f)"><path style=" stroke:none;fill-rule:nonzero;fill:#0b5554;fill-opacity:1;" d="M 950.742188 395.214844 L 973.277344 395.214844 L 973.277344 575.773438 L 950.742188 575.773438 Z M 950.742188 395.214844 "/></g><g clip-rule="nonzero" clip-path="url(#76b860d41b)"><path style=" stroke:none;fill-rule:nonzero;fill:#0b5554;fill-opacity:1;" d="M 696.605469 456.449219 L 719.136719 456.449219 L 719.136719 575.773438 L 696.605469 575.773438 Z M 696.605469 456.449219 "/></g><g clip-rule="nonzero" clip-path="url(#ece6ff20d2)"><path style=" stroke:none;fill-rule:nonzero;fill:#0b5554;fill-opacity:1;" d="M 763.871094 519.222656 L 786.40625 519.222656 L 786.40625 575.773438 L 763.871094 575.773438 Z M 763.871094 519.222656 "/></g><g clip-rule="nonzero" clip-path="url(#10ee458920)"><path style=" stroke:none;fill-rule:nonzero;fill:#0b5554;fill-opacity:1;" d="M 831.140625 485.972656 L 853.671875 485.972656 L 853.671875 575.773438 L 831.140625 575.773438 Z M 831.140625 485.972656 "/></g><g clip-rule="nonzero" clip-path="url(#01fd397d61)"><path style=" stroke:none;fill-rule:nonzero;fill:#0b5554;fill-opacity:1;" d="M 898.40625 441.1875 L 920.9375 441.1875 L 920.9375 575.773438 L 898.40625 575.773438 Z M 898.40625 441.1875 "/></g><g clip-rule="nonzero" clip-path="url(#5579b5764c)"><path style=" stroke:none;fill-rule:nonzero;fill:#0b5554;fill-opacity:1;" d="M 950.742188 395.214844 L 973.277344 395.214844 L 973.277344 575.773438 L 950.742188 575.773438 Z M 950.742188 395.214844 "/></g><g clip-rule="nonzero" clip-path="url(#cad675c1bf)"><path style=" stroke:none;fill-rule:nonzero;fill:#0b5554;fill-opacity:1;" d="M 696.605469 456.449219 L 719.136719 456.449219 L 719.136719 575.773438 L 696.605469 575.773438 Z M 696.605469 456.449219 "/></g><g clip-rule="nonzero" clip-path="url(#1a70e5e711)"><path style=" stroke:none;fill-rule:nonzero;fill:#0b5554;fill-opacity:1;" d="M 763.871094 519.222656 L 786.40625 519.222656 L 786.40625 575.773438 L 763.871094 575.773438 Z M 763.871094 519.222656 "/></g><g clip-rule="nonzero" clip-path="url(#5511c4b383)"><path style=" stroke:none;fill-rule:nonzero;fill:#0b5554;fill-opacity:1;" d="M 831.140625 485.972656 L 853.671875 485.972656 L 853.671875 575.773438 L 831.140625 575.773438 Z M 831.140625 485.972656 "/></g><g clip-rule="nonzero" clip-path="url(#e938066bf1)"><path style=" stroke:none;fill-rule:nonzero;fill:#0b5554;fill-opacity:1;" d="M 898.40625 441.1875 L 920.9375 441.1875 L 920.9375 575.773438 L 898.40625 575.773438 Z M 898.40625 441.1875 "/></g><g clip-rule="nonzero" clip-path="url(#d61ff7bbca)"><path style=" stroke:none;fill-rule:nonzero;fill:#0b5554;fill-opacity:1;" d="M 950.742188 395.214844 L 973.277344 395.214844 L 973.277344 575.773438 L 950.742188 575.773438 Z M 950.742188 395.214844 "/></g><g style="fill:#ffffff;fill-opacity:1;"><g transform="translate(122.808772, 117.256894)"><path style="stroke:none" d="M 2.421875 -1.953125 L 2.421875 -9.890625 L 3.359375 -9.890625 C 7.054688 -6.972656 11.128906 -5.515625 15.578125 -5.515625 C 19.816406 -5.515625 21.9375 -6.632812 21.9375 -8.875 C 21.9375 -9.507812 21.644531 -10.125 21.0625 -10.71875 C 20.488281 -11.320312 18.925781 -11.875 16.375 -12.375 C 13.101562 -13.03125 10.546875 -13.707031 8.703125 -14.40625 C 6.859375 -15.113281 5.382812 -16.203125 4.28125 -17.671875 C 3.175781 -19.148438 2.625 -21 2.625 -23.21875 C 2.625 -26.300781 4.007812 -28.816406 6.78125 -30.765625 C 9.550781 -32.710938 13.097656 -33.6875 17.421875 -33.6875 C 21.660156 -33.6875 25.65625 -32.945312 29.40625 -31.46875 L 29.40625 -23.84375 L 28.484375 -23.84375 C 25.210938 -26.351562 21.609375 -27.609375 17.671875 -27.609375 C 15.710938 -27.609375 14.175781 -27.304688 13.0625 -26.703125 C 11.957031 -26.097656 11.40625 -25.316406 11.40625 -24.359375 C 11.40625 -23.484375 11.75 -22.800781 12.4375 -22.3125 C 13.125 -21.820312 14.960938 -21.289062 17.953125 -20.71875 C 22.898438 -19.738281 26.265625 -18.453125 28.046875 -16.859375 C 29.828125 -15.265625 30.71875 -13.113281 30.71875 -10.40625 C 30.71875 -7.144531 29.332031 -4.492188 26.5625 -2.453125 C 23.800781 -0.421875 20.050781 0.59375 15.3125 0.59375 C 10.832031 0.59375 6.535156 -0.253906 2.421875 -1.953125 Z M 2.421875 -1.953125 "/></g></g><g style="fill:#ffffff;fill-opacity:1;"><g transform="translate(151.591831, 117.256894)"><path style="stroke:none" d="M 12 -28.515625 L 3.5625 -28.515625 L 3.5625 -34.578125 L 12 -34.578125 Z M 11.78125 0 L 3.78125 0 L 3.78125 -24.953125 L 11.78125 -24.953125 Z M 11.78125 0 "/></g></g><g style="fill:#ffffff;fill-opacity:1;"><g transform="translate(163.597287, 117.256894)"><path style="stroke:none" d="M 28.1875 -17.6875 L 28.1875 0 L 20.140625 0 L 20.140625 -12.46875 C 20.140625 -15.238281 19.894531 -17.046875 19.40625 -17.890625 C 18.925781 -18.742188 17.8125 -19.171875 16.0625 -19.171875 C 14.863281 -19.171875 13.4375 -18.675781 11.78125 -17.6875 L 11.78125 0 L 3.78125 0 L 3.78125 -24.953125 L 11.78125 -24.953125 L 11.78125 -22.203125 C 14.664062 -24.492188 17.375 -25.640625 19.90625 -25.640625 C 23.34375 -25.640625 25.78125 -24.195312 27.21875 -21.3125 C 30.6875 -24.195312 33.726562 -25.640625 36.34375 -25.640625 C 41.832031 -25.640625 44.578125 -22.507812 44.578125 -16.25 L 44.578125 0 L 36.53125 0 L 36.53125 -12.46875 C 36.53125 -15.226562 36.304688 -17.035156 35.859375 -17.890625 C 35.410156 -18.742188 34.28125 -19.171875 32.46875 -19.171875 C 31.3125 -19.171875 29.882812 -18.675781 28.1875 -17.6875 Z M 28.1875 -17.6875 "/></g></g><g style="fill:#ffffff;fill-opacity:1;"><g transform="translate(208.202405, 117.256894)"><path style="stroke:none" d="M 11.78125 -1.25 L 11.78125 9.15625 L 3.78125 9.15625 L 3.78125 -24.953125 L 11.78125 -24.953125 L 11.78125 -22.359375 C 14.507812 -24.546875 17.242188 -25.640625 19.984375 -25.640625 C 23.117188 -25.640625 25.539062 -24.488281 27.25 -22.1875 C 28.96875 -19.882812 29.828125 -16.765625 29.828125 -12.828125 C 29.828125 -8.941406 28.75 -5.75 26.59375 -3.25 C 24.4375 -0.757812 21.722656 0.484375 18.453125 0.484375 C 16.148438 0.484375 13.925781 -0.09375 11.78125 -1.25 Z M 11.78125 -18.265625 L 11.78125 -5.71875 C 12.5625 -5.382812 13.734375 -5.21875 15.296875 -5.21875 C 19.484375 -5.21875 21.578125 -7.703125 21.578125 -12.671875 C 21.578125 -15.097656 21.160156 -16.859375 20.328125 -17.953125 C 19.503906 -19.054688 18.195312 -19.609375 16.40625 -19.609375 C 14.832031 -19.609375 13.289062 -19.160156 11.78125 -18.265625 Z M 11.78125 -18.265625 "/></g></g><g style="fill:#ffffff;fill-opacity:1;"><g transform="translate(236.474359, 117.256894)"><path style="stroke:none" d="M 11.78125 0 L 3.78125 0 L 3.78125 -34.578125 L 11.78125 -34.578125 Z M 11.78125 0 "/></g></g><g style="fill:#ffffff;fill-opacity:1;"><g transform="translate(248.479815, 117.256894)"><path style="stroke:none" d="M 15.046875 -8.828125 L 20.734375 -24.953125 L 28.953125 -24.953125 L 15.09375 9.15625 L 6.421875 9.15625 L 10.375 -0.171875 L 0.671875 -24.953125 L 9.0625 -24.953125 Z M 15.046875 -8.828125 "/></g></g><g style="fill:#ffffff;fill-opacity:1;"><g transform="translate(122.808772, 159.266715)"><path style="stroke:none" d="M 2.421875 -1.953125 L 2.421875 -9.890625 L 3.359375 -9.890625 C 7.054688 -6.972656 11.128906 -5.515625 15.578125 -5.515625 C 19.816406 -5.515625 21.9375 -6.632812 21.9375 -8.875 C 21.9375 -9.507812 21.644531 -10.125 21.0625 -10.71875 C 20.488281 -11.320312 18.925781 -11.875 16.375 -12.375 C 13.101562 -13.03125 10.546875 -13.707031 8.703125 -14.40625 C 6.859375 -15.113281 5.382812 -16.203125 4.28125 -17.671875 C 3.175781 -19.148438 2.625 -21 2.625 -23.21875 C 2.625 -26.300781 4.007812 -28.816406 6.78125 -30.765625 C 9.550781 -32.710938 13.097656 -33.6875 17.421875 -33.6875 C 21.660156 -33.6875 25.65625 -32.945312 29.40625 -31.46875 L 29.40625 -23.84375 L 28.484375 -23.84375 C 25.210938 -26.351562 21.609375 -27.609375 17.671875 -27.609375 C 15.710938 -27.609375 14.175781 -27.304688 13.0625 -26.703125 C 11.957031 -26.097656 11.40625 -25.316406 11.40625 -24.359375 C 11.40625 -23.484375 11.75 -22.800781 12.4375 -22.3125 C 13.125 -21.820312 14.960938 -21.289062 17.953125 -20.71875 C 22.898438 -19.738281 26.265625 -18.453125 28.046875 -16.859375 C 29.828125 -15.265625 30.71875 -13.113281 30.71875 -10.40625 C 30.71875 -7.144531 29.332031 -4.492188 26.5625 -2.453125 C 23.800781 -0.421875 20.050781 0.59375 15.3125 0.59375 C 10.832031 0.59375 6.535156 -0.253906 2.421875 -1.953125 Z M 2.421875 -1.953125 "/></g></g><g style="fill:#ffffff;fill-opacity:1;"><g transform="translate(151.591831, 159.266715)"><path style="stroke:none" d="M 11.78125 -1.25 L 11.78125 9.15625 L 3.78125 9.15625 L 3.78125 -24.953125 L 11.78125 -24.953125 L 11.78125 -22.359375 C 14.507812 -24.546875 17.242188 -25.640625 19.984375 -25.640625 C 23.117188 -25.640625 25.539062 -24.488281 27.25 -22.1875 C 28.96875 -19.882812 29.828125 -16.765625 29.828125 -12.828125 C 29.828125 -8.941406 28.75 -5.75 26.59375 -3.25 C 24.4375 -0.757812 21.722656 0.484375 18.453125 0.484375 C 16.148438 0.484375 13.925781 -0.09375 11.78125 -1.25 Z M 11.78125 -18.265625 L 11.78125 -5.71875 C 12.5625 -5.382812 13.734375 -5.21875 15.296875 -5.21875 C 19.484375 -5.21875 21.578125 -7.703125 21.578125 -12.671875 C 21.578125 -15.097656 21.160156 -16.859375 20.328125 -17.953125 C 19.503906 -19.054688 18.195312 -19.609375 16.40625 -19.609375 C 14.832031 -19.609375 13.289062 -19.160156 11.78125 -18.265625 Z M 11.78125 -18.265625 "/></g></g><g style="fill:#ffffff;fill-opacity:1;"><g transform="translate(179.863786, 159.266715)"><path style="stroke:none" d="M 28.359375 -11 L 10.046875 -11 C 10.316406 -6.96875 13.078125 -4.953125 18.328125 -4.953125 C 21.410156 -4.953125 24.300781 -5.910156 27 -7.828125 L 27.890625 -7.828125 L 27.890625 -1.40625 C 24.566406 -0.0195312 21.09375 0.671875 17.46875 0.671875 C 12.488281 0.671875 8.65625 -0.445312 5.96875 -2.6875 C 3.289062 -4.925781 1.953125 -8.140625 1.953125 -12.328125 C 1.953125 -16.453125 3.210938 -19.71875 5.734375 -22.125 C 8.265625 -24.53125 11.734375 -25.734375 16.140625 -25.734375 C 20.191406 -25.734375 23.238281 -24.707031 25.28125 -22.65625 C 27.332031 -20.601562 28.359375 -17.648438 28.359375 -13.796875 Z M 20.40625 -15.6875 C 20.332031 -19.050781 18.691406 -20.734375 15.484375 -20.734375 C 12.097656 -20.734375 10.273438 -19.050781 10.015625 -15.6875 Z M 20.40625 -15.6875 "/></g></g><g style="fill:#ffffff;fill-opacity:1;"><g transform="translate(206.535756, 159.266715)"><path style="stroke:none" d="M 28.84375 0 L 20.796875 0 L 20.796875 -12.375 C 20.796875 -15.03125 20.535156 -16.828125 20.015625 -17.765625 C 19.503906 -18.703125 18.304688 -19.171875 16.421875 -19.171875 C 15.015625 -19.171875 13.46875 -18.675781 11.78125 -17.6875 L 11.78125 0 L 3.78125 0 L 3.78125 -24.953125 L 11.78125 -24.953125 L 11.78125 -22.203125 C 14.695312 -24.492188 17.519531 -25.640625 20.25 -25.640625 C 23.03125 -25.640625 25.15625 -24.820312 26.625 -23.1875 C 28.101562 -21.5625 28.84375 -19.25 28.84375 -16.25 Z M 28.84375 0 "/></g></g><g style="fill:#ffffff;fill-opacity:1;"><g transform="translate(235.407704, 159.266715)"><path style="stroke:none" d="M 19.734375 -0.21875 C 18.015625 0.25 15.925781 0.484375 13.46875 0.484375 C 10.351562 0.484375 8.035156 -0.140625 6.515625 -1.390625 C 5.003906 -2.640625 4.25 -4.800781 4.25 -7.875 L 4.25 -19.53125 L 0.953125 -19.53125 L 0.953125 -24.953125 L 4.25 -24.953125 L 4.25 -32.09375 L 12.25 -32.09375 L 12.25 -24.953125 L 19.734375 -24.953125 L 19.734375 -19.53125 L 12.25 -19.53125 L 12.25 -10.6875 C 12.25 -8.863281 12.320312 -7.65625 12.46875 -7.0625 C 12.613281 -6.46875 12.945312 -5.96875 13.46875 -5.5625 C 14 -5.15625 14.851562 -4.953125 16.03125 -4.953125 C 17.03125 -4.953125 18.039062 -5.207031 19.0625 -5.71875 L 19.734375 -5.71875 Z M 19.734375 -0.21875 "/></g></g><g clip-rule="nonzero" clip-path="url(#5b5961bdbe)"><path style=" stroke:none;fill-rule:nonzero;fill:#b2ced9;fill-opacity:1;" d="M 112.164062 101.625 C 111.710938 98.871094 110.640625 96.222656 109.054688 93.96875 C 108.128906 92.636719 107.019531 91.429688 105.773438 90.382812 C 105.421875 90.089844 105.226562 89.664062 105.226562 89.210938 L 105.226562 87.46875 C 106.835938 87.027344 108.03125 85.539062 108.03125 83.785156 C 108.03125 82.734375 107.601562 81.773438 106.90625 81.089844 C 106.214844 80.394531 105.261719 79.96875 104.214844 79.96875 C 106.324219 79.96875 108.03125 78.261719 108.03125 76.152344 C 108.03125 75.089844 107.601562 74.140625 106.90625 73.457031 C 106.214844 72.761719 105.25 72.335938 104.199219 72.335938 L 55.726562 72.335938 C 54.679688 72.335938 53.726562 72.761719 53.03125 73.457031 C 52.339844 74.152344 51.910156 75.101562 51.910156 76.152344 C 51.910156 78.261719 53.617188 79.96875 55.726562 79.96875 C 54.679688 79.96875 53.714844 80.394531 53.03125 81.089844 C 52.339844 81.785156 51.910156 82.734375 51.910156 83.785156 C 51.910156 85.539062 53.09375 87.015625 54.714844 87.46875 L 54.714844 89.210938 C 54.714844 89.664062 54.507812 90.089844 54.167969 90.382812 C 52.910156 91.429688 51.8125 92.636719 50.886719 93.96875 C 49.3125 96.222656 48.242188 98.882812 47.777344 101.625 L 47.753906 101.722656 L 47.753906 153.28125 C 47.753906 163.132812 55.765625 171.144531 65.617188 171.144531 L 94.324219 171.144531 C 104.175781 171.144531 112.1875 163.132812 112.1875 153.28125 L 112.1875 101.722656 Z M 109.652344 153.292969 C 109.652344 161.742188 102.773438 168.621094 94.324219 168.621094 L 65.617188 168.621094 C 57.167969 168.621094 50.289062 161.742188 50.289062 153.292969 L 50.289062 101.941406 C 50.691406 99.601562 51.617188 97.34375 52.960938 95.417969 C 53.765625 94.273438 54.714844 93.222656 55.800781 92.320312 C 56.726562 91.554688 57.265625 90.417969 57.265625 89.210938 L 57.265625 87.613281 L 102.699219 87.613281 L 102.699219 89.210938 C 102.699219 90.40625 103.238281 91.539062 104.164062 92.320312 C 105.238281 93.222656 106.199219 94.273438 107.003906 95.417969 C 108.347656 97.34375 109.273438 99.601562 109.675781 101.941406 L 109.675781 153.292969 Z M 109.652344 153.292969 "/></g><g style="fill:#ffffff;fill-opacity:1;"><g transform="translate(56.500619, 147.272134)"><path style="stroke:none" d="M 26.578125 -0.0625 L 26.578125 11.6875 L 20.9375 11.6875 L 20.9375 0.125 C 14.332031 -0.0625 9.054688 -1.050781 5.109375 -2.84375 L 5.109375 -12.296875 L 6.5625 -12.296875 C 10.40625 -10.222656 15.25 -8.941406 21.09375 -8.453125 L 21.09375 -17.3125 L 17.96875 -18.03125 C 12.675781 -19.238281 9.082031 -20.847656 7.1875 -22.859375 C 5.289062 -24.878906 4.34375 -27.613281 4.34375 -31.0625 C 4.34375 -34.257812 5.796875 -37 8.703125 -39.28125 C 11.617188 -41.570312 15.695312 -42.96875 20.9375 -43.46875 L 20.9375 -51 L 26.578125 -51 L 26.578125 -43.53125 C 31.859375 -43.207031 36.28125 -42.375 39.84375 -41.03125 L 39.84375 -31.71875 L 38.421875 -31.71875 C 35.117188 -33.613281 31.171875 -34.710938 26.578125 -35.015625 L 26.578125 -26.796875 L 29.15625 -26.28125 C 34.1875 -25.269531 37.8125 -23.789062 40.03125 -21.84375 C 42.257812 -19.90625 43.375 -17.253906 43.375 -13.890625 C 43.375 -10.265625 41.847656 -7.144531 38.796875 -4.53125 C 35.753906 -1.914062 31.679688 -0.425781 26.578125 -0.0625 Z M 21.453125 -27.515625 L 21.453125 -35.015625 C 17.765625 -34.628906 15.921875 -33.398438 15.921875 -31.328125 C 15.921875 -30.273438 16.304688 -29.472656 17.078125 -28.921875 C 17.859375 -28.367188 19.316406 -27.898438 21.453125 -27.515625 Z M 26.4375 -16.609375 L 26.4375 -8.578125 C 29.894531 -9.117188 31.625 -10.46875 31.625 -12.625 C 31.625 -14.582031 29.894531 -15.910156 26.4375 -16.609375 Z M 26.4375 -16.609375 "/></g></g></g></svg>