<svg xmlns="http://www.w3.org/2000/svg" xmlns:xlink="http://www.w3.org/1999/xlink" width="500" zoomAndPan="magnify" viewBox="0 0 375 374.999991" height="500" preserveAspectRatio="xMidYMid meet" version="1.2"><defs><clipPath id="fc1940d66c"><path d="M 37.5 122.253906 L 125.25 122.253906 L 125.25 256.503906 L 37.5 256.503906 Z M 37.5 122.253906 "/></clipPath></defs><g id="10fef00a51"><g style="fill:#073b3a;fill-opacity:1;"><g transform="translate(139.219097, 183.121445)"><path style="stroke:none" d="M 3.28125 -2.65625 L 3.28125 -13.40625 L 4.546875 -13.40625 C 9.566406 -9.445312 15.085938 -7.46875 21.109375 -7.46875 C 26.847656 -7.46875 29.71875 -8.984375 29.71875 -12.015625 C 29.71875 -12.878906 29.328125 -13.71875 28.546875 -14.53125 C 27.765625 -15.34375 25.644531 -16.085938 22.1875 -16.765625 C 17.75 -17.648438 14.28125 -18.566406 11.78125 -19.515625 C 9.289062 -20.472656 7.296875 -21.953125 5.796875 -23.953125 C 4.296875 -25.953125 3.546875 -28.457031 3.546875 -31.46875 C 3.546875 -35.644531 5.421875 -39.050781 9.171875 -41.6875 C 12.929688 -44.332031 17.742188 -45.65625 23.609375 -45.65625 C 29.347656 -45.65625 34.757812 -44.648438 39.84375 -42.640625 L 39.84375 -32.3125 L 38.609375 -32.3125 C 34.171875 -35.707031 29.28125 -37.40625 23.9375 -37.40625 C 21.289062 -37.40625 19.210938 -37 17.703125 -36.1875 C 16.203125 -35.375 15.453125 -34.3125 15.453125 -33 C 15.453125 -31.820312 15.914062 -30.898438 16.84375 -30.234375 C 17.78125 -29.566406 20.273438 -28.84375 24.328125 -28.0625 C 31.035156 -26.738281 35.59375 -25 38 -22.84375 C 40.40625 -20.6875 41.609375 -17.769531 41.609375 -14.09375 C 41.609375 -9.675781 39.738281 -6.085938 36 -3.328125 C 32.257812 -0.566406 27.175781 0.8125 20.75 0.8125 C 14.6875 0.8125 8.863281 -0.34375 3.28125 -2.65625 Z M 3.28125 -2.65625 "/></g></g><g style="fill:#073b3a;fill-opacity:1;"><g transform="translate(178.2186, 183.121445)"><path style="stroke:none" d="M 16.265625 -38.640625 L 4.8125 -38.640625 L 4.8125 -46.859375 L 16.265625 -46.859375 Z M 15.953125 0 L 5.125 0 L 5.125 -33.8125 L 15.953125 -33.8125 Z M 15.953125 0 "/></g></g><g style="fill:#073b3a;fill-opacity:1;"><g transform="translate(194.485349, 183.121445)"><path style="stroke:none" d="M 38.1875 -23.96875 L 38.1875 0 L 27.28125 0 L 27.28125 -16.890625 C 27.28125 -20.648438 26.953125 -23.101562 26.296875 -24.25 C 25.648438 -25.40625 24.140625 -25.984375 21.765625 -25.984375 C 20.140625 -25.984375 18.203125 -25.3125 15.953125 -23.96875 L 15.953125 0 L 5.125 0 L 5.125 -33.8125 L 15.953125 -33.8125 L 15.953125 -30.078125 C 19.867188 -33.191406 23.546875 -34.75 26.984375 -34.75 C 31.640625 -34.75 34.941406 -32.789062 36.890625 -28.875 C 41.585938 -32.789062 45.703125 -34.75 49.234375 -34.75 C 56.679688 -34.75 60.40625 -30.503906 60.40625 -22.015625 L 60.40625 0 L 49.5 0 L 49.5 -16.890625 C 49.5 -20.628906 49.191406 -23.078125 48.578125 -24.234375 C 47.972656 -25.398438 46.445312 -25.984375 44 -25.984375 C 42.425781 -25.984375 40.488281 -25.3125 38.1875 -23.96875 Z M 38.1875 -23.96875 "/></g></g><g style="fill:#073b3a;fill-opacity:1;"><g transform="translate(254.922893, 183.121445)"><path style="stroke:none" d="M 15.953125 -1.6875 L 15.953125 12.40625 L 5.125 12.40625 L 5.125 -33.8125 L 15.953125 -33.8125 L 15.953125 -30.296875 C 19.648438 -33.265625 23.359375 -34.75 27.078125 -34.75 C 31.328125 -34.75 34.609375 -33.1875 36.921875 -30.0625 C 39.242188 -26.945312 40.40625 -22.71875 40.40625 -17.375 C 40.40625 -12.113281 38.945312 -7.789062 36.03125 -4.40625 C 33.113281 -1.03125 29.4375 0.65625 25 0.65625 C 21.882812 0.65625 18.867188 -0.125 15.953125 -1.6875 Z M 15.953125 -24.75 L 15.953125 -7.734375 C 17.023438 -7.296875 18.613281 -7.078125 20.71875 -7.078125 C 26.394531 -7.078125 29.234375 -10.441406 29.234375 -17.171875 C 29.234375 -20.460938 28.671875 -22.847656 27.546875 -24.328125 C 26.429688 -25.816406 24.65625 -26.5625 22.21875 -26.5625 C 20.09375 -26.5625 18.003906 -25.957031 15.953125 -24.75 Z M 15.953125 -24.75 "/></g></g><g style="fill:#073b3a;fill-opacity:1;"><g transform="translate(293.229876, 183.121445)"><path style="stroke:none" d="M 15.953125 0 L 5.125 0 L 5.125 -46.859375 L 15.953125 -46.859375 Z M 15.953125 0 "/></g></g><g style="fill:#073b3a;fill-opacity:1;"><g transform="translate(309.496625, 183.121445)"><path style="stroke:none" d="M 20.390625 -11.953125 L 28.09375 -33.8125 L 39.234375 -33.8125 L 20.453125 12.40625 L 8.703125 12.40625 L 14.0625 -0.234375 L 0.90625 -33.8125 L 12.28125 -33.8125 Z M 20.390625 -11.953125 "/></g></g><g style="fill:#073b3a;fill-opacity:1;"><g transform="translate(139.219097, 240.042501)"><path style="stroke:none" d="M 3.28125 -2.65625 L 3.28125 -13.40625 L 4.546875 -13.40625 C 9.566406 -9.445312 15.085938 -7.46875 21.109375 -7.46875 C 26.847656 -7.46875 29.71875 -8.984375 29.71875 -12.015625 C 29.71875 -12.878906 29.328125 -13.71875 28.546875 -14.53125 C 27.765625 -15.34375 25.644531 -16.085938 22.1875 -16.765625 C 17.75 -17.648438 14.28125 -18.566406 11.78125 -19.515625 C 9.289062 -20.472656 7.296875 -21.953125 5.796875 -23.953125 C 4.296875 -25.953125 3.546875 -28.457031 3.546875 -31.46875 C 3.546875 -35.644531 5.421875 -39.050781 9.171875 -41.6875 C 12.929688 -44.332031 17.742188 -45.65625 23.609375 -45.65625 C 29.347656 -45.65625 34.757812 -44.648438 39.84375 -42.640625 L 39.84375 -32.3125 L 38.609375 -32.3125 C 34.171875 -35.707031 29.28125 -37.40625 23.9375 -37.40625 C 21.289062 -37.40625 19.210938 -37 17.703125 -36.1875 C 16.203125 -35.375 15.453125 -34.3125 15.453125 -33 C 15.453125 -31.820312 15.914062 -30.898438 16.84375 -30.234375 C 17.78125 -29.566406 20.273438 -28.84375 24.328125 -28.0625 C 31.035156 -26.738281 35.59375 -25 38 -22.84375 C 40.40625 -20.6875 41.609375 -17.769531 41.609375 -14.09375 C 41.609375 -9.675781 39.738281 -6.085938 36 -3.328125 C 32.257812 -0.566406 27.175781 0.8125 20.75 0.8125 C 14.6875 0.8125 8.863281 -0.34375 3.28125 -2.65625 Z M 3.28125 -2.65625 "/></g></g><g style="fill:#073b3a;fill-opacity:1;"><g transform="translate(178.2186, 240.042501)"><path style="stroke:none" d="M 15.953125 -1.6875 L 15.953125 12.40625 L 5.125 12.40625 L 5.125 -33.8125 L 15.953125 -33.8125 L 15.953125 -30.296875 C 19.648438 -33.265625 23.359375 -34.75 27.078125 -34.75 C 31.328125 -34.75 34.609375 -33.1875 36.921875 -30.0625 C 39.242188 -26.945312 40.40625 -22.71875 40.40625 -17.375 C 40.40625 -12.113281 38.945312 -7.789062 36.03125 -4.40625 C 33.113281 -1.03125 29.4375 0.65625 25 0.65625 C 21.882812 0.65625 18.867188 -0.125 15.953125 -1.6875 Z M 15.953125 -24.75 L 15.953125 -7.734375 C 17.023438 -7.296875 18.613281 -7.078125 20.71875 -7.078125 C 26.394531 -7.078125 29.234375 -10.441406 29.234375 -17.171875 C 29.234375 -20.460938 28.671875 -22.847656 27.546875 -24.328125 C 26.429688 -25.816406 24.65625 -26.5625 22.21875 -26.5625 C 20.09375 -26.5625 18.003906 -25.957031 15.953125 -24.75 Z M 15.953125 -24.75 "/></g></g><g style="fill:#073b3a;fill-opacity:1;"><g transform="translate(216.525583, 240.042501)"><path style="stroke:none" d="M 38.421875 -14.90625 L 13.609375 -14.90625 C 13.972656 -9.445312 17.71875 -6.71875 24.84375 -6.71875 C 29.019531 -6.71875 32.9375 -8.007812 36.59375 -10.59375 L 37.796875 -10.59375 L 37.796875 -1.890625 C 33.296875 -0.0234375 28.585938 0.90625 23.671875 0.90625 C 16.921875 0.90625 11.726562 -0.609375 8.09375 -3.640625 C 4.46875 -6.671875 2.65625 -11.03125 2.65625 -16.71875 C 2.65625 -22.289062 4.363281 -26.707031 7.78125 -29.96875 C 11.207031 -33.238281 15.898438 -34.875 21.859375 -34.875 C 27.359375 -34.875 31.492188 -33.484375 34.265625 -30.703125 C 37.035156 -27.921875 38.421875 -23.921875 38.421875 -18.703125 Z M 27.640625 -21.265625 C 27.546875 -25.816406 25.328125 -28.09375 20.984375 -28.09375 C 16.390625 -28.09375 13.921875 -25.816406 13.578125 -21.265625 Z M 27.640625 -21.265625 "/></g></g><g style="fill:#073b3a;fill-opacity:1;"><g transform="translate(252.664673, 240.042501)"><path style="stroke:none" d="M 39.09375 0 L 28.1875 0 L 28.1875 -16.765625 C 28.1875 -20.359375 27.832031 -22.789062 27.125 -24.0625 C 26.425781 -25.34375 24.800781 -25.984375 22.25 -25.984375 C 20.34375 -25.984375 18.242188 -25.3125 15.953125 -23.96875 L 15.953125 0 L 5.125 0 L 5.125 -33.8125 L 15.953125 -33.8125 L 15.953125 -30.078125 C 19.910156 -33.191406 23.738281 -34.75 27.4375 -34.75 C 31.207031 -34.75 34.09375 -33.644531 36.09375 -31.4375 C 38.09375 -29.226562 39.09375 -26.085938 39.09375 -22.015625 Z M 39.09375 0 "/></g></g><g style="fill:#073b3a;fill-opacity:1;"><g transform="translate(291.784614, 240.042501)"><path style="stroke:none" d="M 26.734375 -0.296875 C 24.410156 0.335938 21.582031 0.65625 18.25 0.65625 C 14.03125 0.65625 10.890625 -0.1875 8.828125 -1.875 C 6.773438 -3.570312 5.75 -6.5 5.75 -10.65625 L 5.75 -26.46875 L 1.296875 -26.46875 L 1.296875 -33.8125 L 5.75 -33.8125 L 5.75 -43.484375 L 16.59375 -43.484375 L 16.59375 -33.8125 L 26.734375 -33.8125 L 26.734375 -26.46875 L 16.59375 -26.46875 L 16.59375 -14.484375 C 16.59375 -12.015625 16.691406 -10.378906 16.890625 -9.578125 C 17.085938 -8.773438 17.539062 -8.097656 18.25 -7.546875 C 18.96875 -6.992188 20.125 -6.71875 21.71875 -6.71875 C 23.082031 -6.71875 24.457031 -7.054688 25.84375 -7.734375 L 26.734375 -7.734375 Z M 26.734375 -0.296875 "/></g></g><g clip-rule="nonzero" clip-path="url(#fc1940d66c)"><path style=" stroke:none;fill-rule:nonzero;fill:#073b3a;fill-opacity:1;" d="M 125.039062 162.050781 C 124.425781 158.304688 122.96875 154.710938 120.8125 151.644531 C 119.554688 149.839844 118.046875 148.199219 116.355469 146.773438 C 115.875 146.375 115.609375 145.796875 115.609375 145.183594 L 115.609375 142.816406 C 117.796875 142.21875 119.421875 140.195312 119.421875 137.8125 C 119.421875 136.386719 118.839844 135.078125 117.898438 134.148438 C 116.953125 133.207031 115.660156 132.625 114.234375 132.625 C 117.101562 132.625 119.421875 130.304688 119.421875 127.441406 C 119.421875 126 118.839844 124.707031 117.898438 123.777344 C 116.953125 122.832031 115.644531 122.253906 114.21875 122.253906 L 48.363281 122.253906 C 46.9375 122.253906 45.644531 122.832031 44.699219 123.777344 C 43.757812 124.722656 43.175781 126.015625 43.175781 127.441406 C 43.175781 130.304688 45.496094 132.625 48.363281 132.625 C 46.9375 132.625 45.628906 133.207031 44.699219 134.148438 C 43.757812 135.09375 43.175781 136.386719 43.175781 137.8125 C 43.175781 140.195312 44.78125 142.203125 46.988281 142.816406 L 46.988281 145.183594 C 46.988281 145.796875 46.703125 146.375 46.242188 146.773438 C 44.535156 148.199219 43.042969 149.839844 41.785156 151.644531 C 39.648438 154.710938 38.1875 158.324219 37.558594 162.050781 L 37.527344 162.183594 L 37.527344 232.230469 C 37.527344 245.617188 48.410156 256.503906 61.796875 256.503906 L 100.800781 256.503906 C 114.1875 256.503906 125.070312 245.617188 125.070312 232.230469 L 125.070312 162.183594 Z M 121.625 232.25 C 121.625 243.730469 112.28125 253.074219 100.800781 253.074219 L 61.796875 253.074219 C 50.316406 253.074219 40.972656 243.730469 40.972656 232.25 L 40.972656 162.480469 C 41.519531 159.300781 42.777344 156.234375 44.601562 153.617188 C 45.695312 152.058594 46.988281 150.636719 48.460938 149.410156 C 49.71875 148.363281 50.449219 146.824219 50.449219 145.183594 L 50.449219 143.011719 L 112.179688 143.011719 L 112.179688 145.183594 C 112.179688 146.808594 112.910156 148.347656 114.167969 149.410156 C 115.628906 150.636719 116.9375 152.058594 118.03125 153.617188 C 119.851562 156.234375 121.113281 159.300781 121.660156 162.480469 L 121.660156 232.25 Z M 121.625 232.25 "/></g><g style="fill:#073b3a;fill-opacity:1;"><g transform="translate(49.3751, 223.790475)"><path style="stroke:none" d="M 36 -0.09375 L 36 15.828125 L 28.375 15.828125 L 28.375 0.171875 C 19.425781 -0.0859375 12.273438 -1.429688 6.921875 -3.859375 L 6.921875 -16.671875 L 8.90625 -16.671875 C 14.101562 -13.859375 20.664062 -12.117188 28.59375 -11.453125 L 28.59375 -23.46875 L 24.34375 -24.421875 C 17.175781 -26.054688 12.304688 -28.238281 9.734375 -30.96875 C 7.160156 -33.707031 5.875 -37.414062 5.875 -42.09375 C 5.875 -46.425781 7.847656 -50.140625 11.796875 -53.234375 C 15.742188 -56.335938 21.269531 -58.222656 28.375 -58.890625 L 28.375 -69.109375 L 36 -69.109375 L 36 -58.984375 C 43.164062 -58.546875 49.160156 -57.421875 53.984375 -55.609375 L 53.984375 -42.984375 L 52.046875 -42.984375 C 47.578125 -45.546875 42.226562 -47.035156 36 -47.453125 L 36 -36.3125 L 39.515625 -35.609375 C 46.328125 -34.234375 51.238281 -32.226562 54.25 -29.59375 C 57.257812 -26.96875 58.765625 -23.375 58.765625 -18.8125 C 58.765625 -13.90625 56.703125 -9.679688 52.578125 -6.140625 C 48.453125 -2.597656 42.925781 -0.582031 36 -0.09375 Z M 29.078125 -37.28125 L 29.078125 -47.453125 C 24.078125 -46.921875 21.578125 -45.253906 21.578125 -42.453125 C 21.578125 -41.015625 22.101562 -39.921875 23.15625 -39.171875 C 24.207031 -38.429688 26.179688 -37.800781 29.078125 -37.28125 Z M 35.828125 -22.5 L 35.828125 -11.625 C 40.503906 -12.351562 42.84375 -14.179688 42.84375 -17.109375 C 42.84375 -19.765625 40.503906 -21.5625 35.828125 -22.5 Z M 35.828125 -22.5 "/></g></g></g></svg>