<svg xmlns="http://www.w3.org/2000/svg" xmlns:xlink="http://www.w3.org/1999/xlink" width="500" zoomAndPan="magnify" viewBox="0 0 375 374.999991" height="500" preserveAspectRatio="xMidYMid meet" version="1.2"><defs><clipPath id="e659879e65"><path d="M 11.652344 67 L 346 67 L 346 212 L 11.652344 212 Z M 11.652344 67 "/></clipPath><clipPath id="610a454d7e"><path d="M 303 50.503906 L 363.402344 50.503906 L 363.402344 110 L 303 110 Z M 303 50.503906 "/></clipPath><clipPath id="dafd3b9ccd"><path d="M 49 196 L 74 196 L 74 324.253906 L 49 324.253906 Z M 49 196 "/></clipPath><clipPath id="503858c6e7"><path d="M 121 263 L 146 263 L 146 324.253906 L 121 324.253906 Z M 121 263 "/></clipPath><clipPath id="d4d4837374"><path d="M 193 228 L 218 228 L 218 324.253906 L 193 324.253906 Z M 193 228 "/></clipPath><clipPath id="11f960fcea"><path d="M 265 180 L 290 180 L 290 324.253906 L 265 324.253906 Z M 265 180 "/></clipPath><clipPath id="26f8e11241"><path d="M 321 130 L 346 130 L 346 324.253906 L 321 324.253906 Z M 321 130 "/></clipPath><clipPath id="e290721149"><path d="M 49 196 L 74 196 L 74 324.253906 L 49 324.253906 Z M 49 196 "/></clipPath><clipPath id="5a245e9d0a"><path d="M 121 263 L 146 263 L 146 324.253906 L 121 324.253906 Z M 121 263 "/></clipPath><clipPath id="ec1f1b0fda"><path d="M 193 228 L 218 228 L 218 324.253906 L 193 324.253906 Z M 193 228 "/></clipPath><clipPath id="86c2ea75a9"><path d="M 265 180 L 290 180 L 290 324.253906 L 265 324.253906 Z M 265 180 "/></clipPath><clipPath id="ded0475828"><path d="M 321 130 L 346 130 L 346 324.253906 L 321 324.253906 Z M 321 130 "/></clipPath><clipPath id="5641c5b751"><path d="M 49 196 L 74 196 L 74 324.253906 L 49 324.253906 Z M 49 196 "/></clipPath><clipPath id="166009d4b5"><path d="M 121 263 L 146 263 L 146 324.253906 L 121 324.253906 Z M 121 263 "/></clipPath><clipPath id="c17099c793"><path d="M 193 228 L 218 228 L 218 324.253906 L 193 324.253906 Z M 193 228 "/></clipPath><clipPath id="9c7ab27a10"><path d="M 265 180 L 290 180 L 290 324.253906 L 265 324.253906 Z M 265 180 "/></clipPath><clipPath id="612872893e"><path d="M 321 130 L 346 130 L 346 324.253906 L 321 324.253906 Z M 321 130 "/></clipPath></defs><g id="115f9ebbd8"><g clip-rule="nonzero" clip-path="url(#e659879e65)"><path style=" stroke:none;fill-rule:nonzero;fill:#0b5554;fill-opacity:1;" d="M 145.578125 211.285156 L 72.949219 138.660156 L 25.667969 185.941406 L 11.652344 171.925781 L 72.949219 110.628906 L 145.578125 183.257812 L 193.953125 134.882812 L 229.300781 170.230469 L 331.558594 67.972656 L 345.574219 81.988281 L 229.300781 198.261719 L 193.953125 162.914062 Z M 145.578125 211.285156 "/></g><g clip-rule="nonzero" clip-path="url(#610a454d7e)"><path style=" stroke:none;fill-rule:nonzero;fill:#0b5554;fill-opacity:1;" d="M 363.039062 50.5 L 351.90625 109.929688 L 303.609375 61.636719 Z M 363.039062 50.5 "/></g><g clip-rule="nonzero" clip-path="url(#dafd3b9ccd)"><path style=" stroke:none;fill-rule:nonzero;fill:#0b5554;fill-opacity:1;" d="M 49.101562 196.472656 L 73.234375 196.472656 L 73.234375 324.253906 L 49.101562 324.253906 Z M 49.101562 196.472656 "/></g><g clip-rule="nonzero" clip-path="url(#503858c6e7)"><path style=" stroke:none;fill-rule:nonzero;fill:#0b5554;fill-opacity:1;" d="M 121.140625 263.695312 L 145.269531 263.695312 L 145.269531 324.253906 L 121.140625 324.253906 Z M 121.140625 263.695312 "/></g><g clip-rule="nonzero" clip-path="url(#d4d4837374)"><path style=" stroke:none;fill-rule:nonzero;fill:#0b5554;fill-opacity:1;" d="M 193.175781 228.089844 L 217.304688 228.089844 L 217.304688 324.253906 L 193.175781 324.253906 Z M 193.175781 228.089844 "/></g><g clip-rule="nonzero" clip-path="url(#11f960fcea)"><path style=" stroke:none;fill-rule:nonzero;fill:#0b5554;fill-opacity:1;" d="M 265.210938 180.128906 L 289.34375 180.128906 L 289.34375 324.253906 L 265.210938 324.253906 Z M 265.210938 180.128906 "/></g><g clip-rule="nonzero" clip-path="url(#26f8e11241)"><path style=" stroke:none;fill-rule:nonzero;fill:#0b5554;fill-opacity:1;" d="M 321.257812 130.894531 L 345.390625 130.894531 L 345.390625 324.253906 L 321.257812 324.253906 Z M 321.257812 130.894531 "/></g><g clip-rule="nonzero" clip-path="url(#e290721149)"><path style=" stroke:none;fill-rule:nonzero;fill:#0b5554;fill-opacity:1;" d="M 49.101562 196.472656 L 73.234375 196.472656 L 73.234375 324.253906 L 49.101562 324.253906 Z M 49.101562 196.472656 "/></g><g clip-rule="nonzero" clip-path="url(#5a245e9d0a)"><path style=" stroke:none;fill-rule:nonzero;fill:#0b5554;fill-opacity:1;" d="M 121.140625 263.695312 L 145.269531 263.695312 L 145.269531 324.253906 L 121.140625 324.253906 Z M 121.140625 263.695312 "/></g><g clip-rule="nonzero" clip-path="url(#ec1f1b0fda)"><path style=" stroke:none;fill-rule:nonzero;fill:#0b5554;fill-opacity:1;" d="M 193.175781 228.089844 L 217.304688 228.089844 L 217.304688 324.253906 L 193.175781 324.253906 Z M 193.175781 228.089844 "/></g><g clip-rule="nonzero" clip-path="url(#86c2ea75a9)"><path style=" stroke:none;fill-rule:nonzero;fill:#0b5554;fill-opacity:1;" d="M 265.210938 180.128906 L 289.34375 180.128906 L 289.34375 324.253906 L 265.210938 324.253906 Z M 265.210938 180.128906 "/></g><g clip-rule="nonzero" clip-path="url(#ded0475828)"><path style=" stroke:none;fill-rule:nonzero;fill:#0b5554;fill-opacity:1;" d="M 321.257812 130.894531 L 345.390625 130.894531 L 345.390625 324.253906 L 321.257812 324.253906 Z M 321.257812 130.894531 "/></g><g clip-rule="nonzero" clip-path="url(#5641c5b751)"><path style=" stroke:none;fill-rule:nonzero;fill:#0b5554;fill-opacity:1;" d="M 49.101562 196.472656 L 73.234375 196.472656 L 73.234375 324.253906 L 49.101562 324.253906 Z M 49.101562 196.472656 "/></g><g clip-rule="nonzero" clip-path="url(#166009d4b5)"><path style=" stroke:none;fill-rule:nonzero;fill:#0b5554;fill-opacity:1;" d="M 121.140625 263.695312 L 145.269531 263.695312 L 145.269531 324.253906 L 121.140625 324.253906 Z M 121.140625 263.695312 "/></g><g clip-rule="nonzero" clip-path="url(#c17099c793)"><path style=" stroke:none;fill-rule:nonzero;fill:#0b5554;fill-opacity:1;" d="M 193.175781 228.089844 L 217.304688 228.089844 L 217.304688 324.253906 L 193.175781 324.253906 Z M 193.175781 228.089844 "/></g><g clip-rule="nonzero" clip-path="url(#9c7ab27a10)"><path style=" stroke:none;fill-rule:nonzero;fill:#0b5554;fill-opacity:1;" d="M 265.210938 180.128906 L 289.34375 180.128906 L 289.34375 324.253906 L 265.210938 324.253906 Z M 265.210938 180.128906 "/></g><g clip-rule="nonzero" clip-path="url(#612872893e)"><path style=" stroke:none;fill-rule:nonzero;fill:#0b5554;fill-opacity:1;" d="M 321.257812 130.894531 L 345.390625 130.894531 L 345.390625 324.253906 L 321.257812 324.253906 Z M 321.257812 130.894531 "/></g></g></svg>